<svg width="15" height="16" viewBox="0 0 15 16" fill="none" xmlns="http://www.w3.org/2000/svg">
<path d="M3.15998 15.4C3.15998 15.2267 3.12665 15.14 3.05998 15.14L2.59998 15.36C2.59998 15.2667 2.54665 15.2 2.43998 15.16L2.27998 15.14C2.17331 15.14 2.03998 15.1867 1.87998 15.28C1.85331 15.2133 1.81998 15.1467 1.77998 15.08C1.73998 15.0133 1.70665 14.9533 1.67998 14.9C1.50665 14.5667 1.33331 14.2 1.15998 13.8C0.999981 13.3867 0.846647 12.9933 0.699981 12.62C0.566647 12.2467 0.459981 11.9533 0.37998 11.74C0.326647 11.5667 0.266647 11.3067 0.199981 10.96C0.133314 10.6133 0.0666472 10.1733 -1.94758e-05 9.63999C0.146647 9.73332 0.259981 9.77999 0.339981 9.77999C0.433314 9.77999 0.519981 9.63999 0.59998 9.35999C0.639981 9.41332 0.713314 9.43999 0.819981 9.43999C0.899981 9.43999 0.959981 9.41332 0.999981 9.35999L1.31998 8.87999L1.67998 8.99999H1.69998C1.72665 8.99999 1.75331 8.98666 1.77998 8.95999C1.80665 8.93332 1.84665 8.90666 1.89998 8.87999C2.00665 8.81332 2.08665 8.77999 2.13998 8.77999L2.19998 8.79999C2.53331 8.95999 2.74665 9.25332 2.83998 9.67999C3.07998 10.6933 3.31998 11.2 3.55998 11.2C3.79998 11.2 4.07998 10.9467 4.39998 10.44C4.55998 10.1867 4.71998 9.89332 4.87998 9.55999C5.05331 9.22666 5.22665 8.85332 5.39998 8.43999C5.42665 8.59999 5.45331 8.67999 5.47998 8.67999C5.54665 8.67999 5.65998 8.51332 5.81998 8.17999C5.99331 7.84666 6.26665 7.38666 6.63998 6.79999C6.85331 6.43999 7.11998 6.03332 7.43998 5.57999C7.77331 5.12666 8.12665 4.65999 8.49998 4.17999C8.87331 3.69999 9.23331 3.24665 9.57998 2.81999C9.93998 2.39332 10.26 2.02665 10.54 1.71999C10.82 1.41332 11.0266 1.21332 11.16 1.11999C11.6666 0.773322 12.0666 0.439988 12.36 0.119988C12.3466 0.213321 12.3266 0.299988 12.3 0.379989C12.2866 0.446655 12.28 0.493322 12.28 0.519988C12.28 0.573322 12.3066 0.599988 12.36 0.599988L12.92 0.319988V0.399988C12.92 0.506655 12.9466 0.559989 13 0.559989C13.04 0.559989 13.12 0.499989 13.24 0.379989C13.36 0.259989 13.4266 0.173322 13.44 0.119988L13.4 0.399988L14.08 -1.12057e-05L13.92 0.359989C14.1333 0.213322 14.2866 0.139988 14.38 0.139988C14.4333 0.139988 14.4733 0.173321 14.5 0.239988C14.5266 0.293322 14.54 0.346655 14.54 0.399988C14.54 0.479988 14.5066 0.573322 14.44 0.679988C14.3733 0.786655 14.2866 0.913322 14.18 1.05999C14.1 1.16666 13.9666 1.32666 13.78 1.53999C13.6066 1.73999 13.34 2.03999 12.98 2.43999C12.62 2.82665 12.14 3.36666 11.54 4.05999C11.38 4.23332 11.1333 4.53999 10.8 4.97999C10.4666 5.40666 10.0866 5.90666 9.65998 6.47999C9.24665 7.03999 8.83331 7.60666 8.41998 8.17999C8.00665 8.75332 7.63998 9.27332 7.31998 9.73999C6.99998 10.1933 6.77331 10.5333 6.63998 10.76L5.39998 12.86C5.13331 13.3133 4.91331 13.6867 4.73998 13.98C4.56665 14.26 4.43331 14.4533 4.33998 14.56C4.13998 14.8 3.91998 15.0133 3.67998 15.2L3.49998 15.1L3.33998 15.2L3.15998 15.4Z" fill="#FE9A00"/>
</svg>
